<?xml version="1.0" standalone="no"?>
<!DOCTYPE svg PUBLIC "-//W3C//DTD SVG 20010904//EN"
 "http://www.w3.org/TR/2001/REC-SVG-20010904/DTD/svg10.dtd">
<svg version="1.0" xmlns="http://www.w3.org/2000/svg"
 width="1643.000000pt" height="77.000000pt" viewBox="0 0 1643.000000 77.000000"
 preserveAspectRatio="xMidYMid meet">

<g transform="translate(0.000000,77.000000) scale(0.100000,-0.100000)"
fill="#000000" stroke="none">
<path d="M175 587 c-54 -21 -72 -36 -89 -71 -20 -43 -20 -78 -1 -116 19 -37
50 -53 156 -80 92 -24 109 -33 109 -61 0 -28 -39 -49 -93 -49 -38 0 -53 5 -72
25 -14 13 -25 29 -25 35 0 5 -22 10 -51 10 l-52 0 7 -32 c15 -77 64 -109 179
-116 133 -8 217 43 217 132 0 75 -27 97 -163 132 -49 12 -97 30 -108 40 -44
40 -6 84 73 84 53 0 88 -24 88 -60 0 -18 7 -20 56 -20 48 0 55 2 50 18 -2 9
-8 28 -11 42 -10 36 -34 60 -80 81 -46 21 -143 24 -190 6z"/>
<path d="M2310 591 c-109 -34 -170 -115 -170 -228 1 -140 101 -235 249 -235
156 -1 255 91 256 237 0 110 -52 184 -156 220 -44 16 -137 19 -179 6z m157
-90 c71 -33 100 -124 65 -204 -24 -54 -57 -78 -116 -84 -97 -11 -166 45 -173
140 -6 69 19 115 77 145 54 27 92 28 147 3z"/>
<path d="M3548 591 c-14 -5 -45 -19 -67 -32 -133 -74 -143 -281 -18 -379 81
-64 243 -68 330 -8 l27 19 0 -25 c0 -22 4 -26 30 -26 l30 0 0 105 0 105 -126
0 -125 0 3 -27 c3 -27 6 -28 72 -33 l69 -5 -30 -32 c-70 -75 -205 -58 -247 32
-9 18 -16 55 -16 82 0 91 63 153 155 153 67 0 115 -26 138 -72 17 -36 21 -38
64 -38 l46 0 -6 36 c-14 88 -101 146 -226 150 -42 2 -88 0 -103 -5z"/>
<path d="M5727 586 c-75 -21 -117 -71 -117 -142 0 -27 8 -44 33 -69 26 -26 49
-36 126 -54 101 -23 121 -33 121 -62 0 -28 -39 -49 -93 -49 -38 0 -53 5 -72
25 -14 13 -25 29 -25 35 0 5 -22 10 -50 10 -45 0 -50 -2 -50 -22 0 -35 35 -85
72 -104 49 -26 177 -31 233 -10 63 24 95 66 95 123 0 67 -35 95 -152 122 -135
31 -167 61 -117 107 46 42 159 15 159 -38 0 -15 8 -18 54 -18 l54 0 -7 33 c-4
17 -14 42 -21 54 -35 55 -153 84 -243 59z"/>
<path d="M7828 586 c-52 -19 -83 -40 -111 -78 -91 -122 -48 -292 90 -359 99
-48 247 -19 317 62 107 125 54 319 -101 375 -49 17 -147 17 -195 0z m190 -93
c84 -62 81 -202 -7 -260 -42 -29 -112 -30 -161 -5 -40 21 -80 90 -80 137 1 56
35 114 82 136 53 24 127 21 166 -8z"/>
<path d="M14171 584 c-91 -34 -141 -114 -141 -225 1 -99 57 -177 154 -214 69
-27 198 -18 259 18 46 27 79 71 91 120 6 27 6 27 -49 27 -47 0 -55 -3 -55 -18
0 -41 -71 -82 -141 -82 -122 0 -196 126 -137 231 36 65 130 97 205 68 38 -14
73 -48 73 -71 0 -15 8 -18 51 -18 l52 0 -6 37 c-8 50 -34 83 -88 113 -57 31
-199 39 -268 14z"/>
<path d="M14860 591 c-109 -34 -170 -115 -170 -228 1 -140 101 -235 249 -235
156 -1 255 91 256 237 0 110 -52 184 -156 220 -44 16 -137 19 -179 6z m157
-90 c71 -33 100 -124 65 -204 -24 -54 -57 -78 -116 -84 -97 -11 -166 45 -173
140 -6 69 19 115 77 145 54 27 92 28 147 3z"/>
<path d="M620 365 l0 -225 205 0 205 0 0 40 0 40 -150 0 -150 0 0 50 0 50 150
0 150 0 0 40 0 40 -150 0 -150 0 0 55 0 55 150 0 150 0 0 40 0 40 -205 0 -205
0 0 -225z"/>
<path d="M1180 365 l0 -227 163 4 c127 2 168 7 193 20 57 31 74 119 29 163
-13 14 -31 25 -40 25 -11 0 -5 11 19 34 40 38 48 84 21 135 -26 52 -73 65
-237 69 l-148 4 0 -227z m259 134 c36 -13 49 -46 31 -79 -15 -28 -50 -40 -121
-40 l-59 0 0 65 0 65 59 0 c32 0 72 -5 90 -11z m21 -182 c30 -15 38 -58 15
-77 -10 -8 -51 -15 -101 -18 l-84 -5 0 57 0 56 73 0 c39 0 83 -6 97 -13z"/>
<path d="M2810 366 l0 -226 55 0 55 0 0 81 0 81 75 -4 c93 -4 108 -17 115 -96
l5 -57 53 -3 52 -3 0 44 c0 59 -16 102 -46 122 l-25 16 24 19 c13 11 30 33 37
50 16 39 8 115 -16 141 -41 46 -72 53 -231 57 l-153 4 0 -226z m296 120 c20
-28 17 -63 -6 -86 -17 -17 -33 -20 -100 -20 l-80 0 0 66 0 66 86 -3 c71 -3 88
-7 100 -23z"/>
<path d="M4207 508 c-38 -72 -176 -338 -185 -360 -2 -5 19 -8 47 -8 49 0 51 1
71 40 l20 40 140 0 140 0 20 -40 c20 -39 21 -40 76 -40 l56 0 -35 63 c-19 34
-71 135 -117 225 l-82 162 -53 0 -53 0 -45 -82z m141 -113 c23 -47 42 -87 42
-90 0 -3 -40 -5 -90 -5 -49 0 -90 2 -90 5 0 10 85 175 90 175 3 0 25 -38 48
-85z"/>
<path d="M4720 365 l0 -225 50 0 49 0 3 141 3 141 124 -141 124 -141 49 0 48
0 0 225 0 225 -45 0 -45 0 0 -141 c0 -78 -4 -139 -9 -137 -5 2 -64 65 -130
141 l-122 137 -50 0 -49 0 0 -225z"/>
<path d="M5320 365 l0 -225 55 0 55 0 0 225 0 225 -55 0 -55 0 0 -225z"/>
<path d="M6337 508 c-38 -72 -176 -338 -185 -360 -2 -5 19 -8 47 -8 49 0 51 1
71 40 l20 40 140 0 140 0 20 -40 c20 -39 21 -40 76 -40 l56 0 -35 63 c-19 34
-71 135 -117 225 l-82 162 -53 0 -53 0 -45 -82z m141 -113 c23 -47 42 -87 42
-90 0 -3 -40 -5 -90 -5 -49 0 -90 2 -90 5 0 10 85 175 90 175 3 0 25 -38 48
-85z"/>
<path d="M6830 540 l0 -50 85 0 85 0 0 -175 0 -175 50 0 50 0 0 175 0 175 85
0 85 0 0 50 0 50 -220 0 -220 0 0 -50z"/>
<path d="M7400 365 l0 -225 55 0 55 0 0 225 0 225 -55 0 -55 0 0 -225z"/>
<path d="M8340 365 l0 -225 50 0 49 0 3 139 3 140 124 -140 124 -139 48 0 49
0 0 225 0 225 -50 0 -49 0 -3 -141 -3 -141 -123 141 -123 141 -50 0 -49 0 0
-225z"/>
<path d="M9210 540 l0 -50 80 0 80 0 0 -175 0 -175 55 0 55 0 0 175 0 175 85
0 85 0 0 50 0 50 -220 0 -220 0 0 -50z"/>
<path d="M9790 365 l0 -225 205 0 205 0 0 40 0 40 -155 0 -155 0 0 50 0 50
155 0 155 0 0 40 0 40 -155 0 -155 0 0 55 0 55 155 0 155 0 0 40 0 40 -205 0
-205 0 0 -225z"/>
<path d="M10350 366 l0 -226 50 0 49 0 3 78 3 77 77 0 c96 0 108 -10 115 -94
l6 -61 54 0 c46 0 54 3 49 16 -3 9 -6 36 -6 61 0 39 -5 50 -35 79 -31 29 -33
33 -16 39 49 15 75 116 44 175 -31 60 -75 74 -245 78 l-148 4 0 -226z m280
126 c14 -11 23 -29 23 -47 0 -48 -33 -65 -124 -65 l-79 0 0 65 0 65 79 0 c61
0 84 -4 101 -18z"/>
<path d="M10910 365 l0 -225 50 0 49 0 3 118 3 117 60 -117 60 -118 55 0 55 0
60 116 60 116 3 -116 3 -116 54 0 55 0 0 225 0 226 -57 -3 -57 -3 -87 -169
-87 -168 -25 43 c-14 24 -54 101 -88 172 l-64 127 -52 0 -53 0 0 -225z"/>
<path d="M11630 365 l0 -225 50 0 50 0 0 225 0 225 -50 0 -50 0 0 -225z"/>
<path d="M11890 365 l0 -225 50 0 49 0 3 141 3 141 124 -141 124 -141 49 0 48
0 0 225 0 225 -45 0 -45 0 0 -141 c0 -78 -4 -139 -9 -137 -5 2 -64 65 -130
141 l-122 137 -50 0 -49 0 0 -225z"/>
<path d="M12667 508 c-38 -72 -176 -338 -185 -360 -2 -5 19 -8 47 -8 49 0 51
1 71 40 l20 40 140 0 140 0 20 -40 c20 -39 21 -40 76 -40 l56 0 -35 63 c-19
34 -71 135 -117 225 l-82 162 -53 0 -53 0 -45 -82z m141 -113 c23 -47 42 -87
42 -90 0 -3 -40 -5 -90 -5 -49 0 -90 2 -90 5 0 10 85 175 90 175 3 0 25 -38
48 -85z"/>
<path d="M13190 365 l0 -225 205 0 205 0 0 50 0 50 -150 0 -150 0 0 175 0 175
-55 0 -55 0 0 -225z"/>
<path d="M15360 365 l0 -225 55 0 54 0 3 112 3 113 58 -112 57 -113 54 0 55 0
58 112 58 112 3 -112 3 -112 54 0 55 0 0 225 0 225 -53 0 -53 0 -88 -171 -88
-171 -19 32 c-11 17 -51 94 -89 171 l-70 139 -55 0 -55 0 0 -225z"/>
<path d="M16176 556 c-14 -19 -42 -40 -61 -47 -26 -10 -35 -19 -35 -36 0 -19
5 -23 28 -23 16 0 37 7 48 15 42 32 44 24 44 -155 l0 -170 45 0 45 0 0 225 0
225 -44 0 c-38 0 -47 -4 -70 -34z"/>
<path d="M1740 320 l0 -30 120 0 120 0 0 30 0 30 -120 0 -120 0 0 -30z"/>
</g>
</svg>
